<svg width="50" height="44" viewBox="0 0 50 44" fill="none" xmlns="http://www.w3.org/2000/svg">
<path fill-rule="evenodd" clip-rule="evenodd" d="M15.7138 0.0544324C14.7954 0.150751 13.1236 0.524535 12.0745 0.867933C6.37743 2.73266 1.94993 7.48472 0.479924 13.3123C0.0676267 14.9466 -0.043166 16.0855 0.0139889 18.1009C0.0912702 20.8276 0.555739 22.8307 1.6281 25.0623L2.09462 26.0333L1.53548 29.3709C0.914105 33.0792 0.913226 33.1693 1.49093 33.7451C2.00923 34.2618 2.19477 34.2578 5.84936 33.6507L9.14597 33.1031L10.0606 33.5288C11.9082 34.3887 13.9062 34.9407 15.8951 35.1408C16.4516 35.1968 16.942 35.2426 16.985 35.2426C17.0279 35.2426 17.1805 35.4424 17.3241 35.6866C18.1553 37.1006 20.1569 39.3001 21.6431 40.4325C24.0941 42.3005 27.0525 43.4885 30.3201 43.9172C31.6079 44.0862 34.3461 43.9848 35.6882 43.7186C37.0467 43.4491 38.8031 42.8752 39.9486 42.3268L40.8408 41.8995L43.9339 42.4213C47.598 43.0396 47.9854 43.0489 48.504 42.5321C49.0716 41.9663 49.0705 41.8567 48.4633 38.186L47.9183 34.8921L48.4141 33.7769C49.2323 31.9371 49.6564 30.4402 49.915 28.4806C50.0871 27.1771 49.9858 24.3498 49.72 23.0319C48.856 18.7484 46.4569 14.9332 42.9903 12.3302C40.2467 10.2701 37.2442 9.14367 33.5816 8.80037L32.9351 8.73969L32.4744 8.01462C31.85 7.03235 31.2868 6.34087 30.2322 5.26228C27.4794 2.44692 24.0625 0.719705 20.0978 0.139357C19.1499 0.000575777 16.6819 -0.047243 15.7138 0.0544324ZM15.8115 3.06554C13.6759 3.45501 12.6017 3.78185 11.195 4.4702C9.65187 5.22527 8.64751 5.95355 7.30842 7.28838C4.6663 9.92221 3.29605 12.874 3.0175 16.532C2.81087 19.2457 3.33044 21.7623 4.63123 24.3477C4.92325 24.9281 5.16233 25.5242 5.16262 25.6723C5.16291 25.8206 4.98334 27.0301 4.76351 28.3602C4.54378 29.6903 4.37867 30.7922 4.39665 30.8089C4.41462 30.8257 5.5713 30.6484 6.96686 30.415C8.36251 30.1816 9.60702 30.0163 9.73247 30.0477C9.85792 30.0792 10.4247 30.3399 10.9919 30.6272C12.1456 31.2115 13.6613 31.731 14.9811 31.9944C16.3237 32.2625 19.1279 32.2364 20.5011 31.943C23.5053 31.3014 25.8264 30.0459 27.9815 27.8965C30.1786 25.7054 31.5399 23.1413 32.0962 20.1471C32.355 18.7536 32.3276 16.1454 32.0399 14.7906C30.9255 9.54345 27.2751 5.39298 22.3173 3.73627C20.7308 3.20618 19.9944 3.09096 17.9609 3.05483C16.9131 3.03623 15.9458 3.041 15.8115 3.06554ZM16.2698 8.02212C14.9767 8.37652 13.5842 9.49388 13.0382 10.6156C12.4476 11.8288 12.3059 13.2215 12.7115 13.8267C12.9771 14.2231 13.4866 14.4982 13.9552 14.4982C14.6869 14.4982 15.4207 13.8416 15.4207 13.187C15.4207 12.2888 16.0148 11.3398 16.7801 11.0154C17.5561 10.6865 18.6471 10.9023 19.2005 11.4943C19.5065 11.8215 19.8126 12.5424 19.8145 12.9402C19.8202 14.1378 18.8109 15.1773 17.6403 15.1796C17.1989 15.1805 16.736 15.4263 16.435 15.8197L16.1535 16.1876V18.842C16.1535 21.3709 16.1629 21.509 16.3549 21.7652C16.8751 22.4597 17.6569 22.6673 18.3306 22.2898C19.0414 21.8917 19.1333 21.5887 19.1333 19.6454V17.9528L19.6116 17.7835C20.2537 17.5562 21.1792 16.8626 21.6825 16.2316C22.2274 15.5485 22.5363 14.8576 22.726 13.898C23.2257 11.3694 21.5999 8.78021 19.0423 8.03128C18.3997 7.84312 16.9405 7.83835 16.2698 8.02212ZM34.4092 12.0131C34.9226 13.3468 35.343 15.9065 35.3491 17.7367L35.3516 18.4915H37.8541C40.222 18.4915 40.3764 18.5026 40.7248 18.6977C41.7193 19.2549 41.7498 20.5429 40.7855 21.2611C40.5302 21.4513 40.3666 21.4634 37.7 21.4917L34.8841 21.5214L34.7201 22.1734C34.6298 22.532 34.3832 23.2824 34.1722 23.841C33.9612 24.3996 33.7884 24.8708 33.7884 24.888C33.7884 24.9052 35.273 24.9192 37.0874 24.9192C40.8121 24.9192 40.8588 24.9274 41.2911 25.6598C41.7126 26.3742 41.4632 27.2555 40.7149 27.6948C40.3993 27.8802 40.1797 27.891 36.1665 27.9179L31.9497 27.9461L31.5345 28.5022C31.3061 28.808 30.5965 29.5733 29.9576 30.2026L28.796 31.347H34.6484H40.5009L40.823 31.5661C41.7124 32.1714 41.7176 33.4584 40.8328 34.0476L40.5009 34.2687H32.3997C27.345 34.2687 24.2319 34.2331 24.1212 34.1741C23.9933 34.1059 23.7436 34.1466 23.224 34.3206C22.828 34.4531 22.0501 34.663 21.4953 34.7869L20.4868 35.0122L20.8999 35.5413C22.0393 37.0007 24.0088 38.5742 25.8258 39.477C27.9282 40.5216 29.9507 40.9886 32.3718 40.9886C34.8334 40.9886 36.7676 40.5327 39.0154 39.4226C39.7445 39.0625 40.3106 38.844 40.5126 38.8448C40.6912 38.8454 41.895 39.0229 43.1878 39.239C44.4806 39.4551 45.5589 39.6113 45.5841 39.5862C45.6093 39.5612 45.4496 38.4664 45.2293 37.1535C45.0089 35.8406 44.8286 34.647 44.8286 34.501C44.8286 34.355 45.0904 33.7062 45.4103 33.0591C46.6807 30.4897 47.185 27.9684 46.9671 25.2753C46.8537 23.8733 46.6846 23.0428 46.248 21.7421C44.7656 17.3261 41.2741 13.897 36.8081 12.4709C35.5875 12.0812 34.3441 11.8439 34.4092 12.0131ZM17.0231 24.5154C16.4681 24.7737 16.1647 25.2263 16.1647 25.796C16.1647 26.9555 17.2593 27.669 18.2717 27.1697C18.8812 26.8691 19.0845 26.5454 19.0845 25.8759C19.0845 25.4695 19.0311 25.2519 18.883 25.0541C18.3846 24.3885 17.7132 24.1941 17.0231 24.5154Z" fill="white"/>
</svg>
