<svg width="512" height="498" viewBox="0 0 512 498" fill="none" xmlns="http://www.w3.org/2000/svg">
<path fill-rule="evenodd" clip-rule="evenodd" d="M75.2313 2.36517C66.3233 5.25117 58.6523 9.61117 49.4883 16.9972C39.8973 24.7262 13.6823 51.5862 9.88628 57.5712C-14.6777 96.3052 7.62828 180.4 64.6333 263.97C86.2703 295.691 108.377 322.323 138.804 353.327C217.717 433.733 308.671 487.42 382.271 497.038C394.044 498.576 419.393 497.737 427.348 495.546C442.02 491.504 453.896 483.077 475.952 461.055C499.185 437.859 510.085 418.363 511.503 397.47C513.144 373.28 499.084 349.563 470.733 328.695C446.235 310.665 425.764 302.746 403.879 302.833C379.441 302.931 360.278 312.279 333.434 337.197C327.078 343.097 320.708 348.218 319.279 348.577C308.099 351.383 286.031 340.099 259.848 318.187C245.895 306.51 220.91 282.729 206.633 267.537C171.031 229.653 155.848 206.611 155.848 190.463C155.848 185.055 158.46 180.163 163.854 175.47C167.855 171.988 177.63 159.184 181.309 152.606C199.282 120.468 190.113 84.9042 151.458 36.8282C135.394 16.8492 120.507 5.62917 104.353 1.32717C96.4163 -0.786828 83.5453 -0.327828 75.2313 2.36517Z" fill="black"/>
</svg>
