<svg width="50" height="50" viewBox="0 0 50 50" fill="none" xmlns="http://www.w3.org/2000/svg">
<path fill-rule="evenodd" clip-rule="evenodd" d="M21.9219 1.10705C21.2565 2.26122 20.9401 2.47421 19.7159 2.59093C18.3988 2.71611 18.2194 2.62513 17.4269 1.42971L16.5668 0.132369L14.4297 0.669782L12.2925 1.20719V2.71012C12.2925 3.91824 12.1219 4.32483 11.4219 4.78254C10.3295 5.49733 9.71526 5.49839 8.34063 4.78854L7.24962 4.22538L5.63765 5.8348L4.02569 7.44422L4.78258 8.78881L5.53982 10.1338L4.81966 11.2692C4.19204 12.2591 3.90595 12.4047 2.58855 12.4047H1.07724L0.538619 14.5399L0 16.6751L1.19697 17.4491C2.24065 18.1237 2.395 18.4118 2.39888 19.6929C2.40277 20.9994 2.26326 21.2495 1.1454 21.9392C0.312222 22.4534 -0.0434421 22.8948 0.0921837 23.2475C0.204499 23.5402 0.46692 24.4549 0.67495 25.2801C1.04121 26.7326 1.1069 26.7872 2.73335 27.0027C4.07548 27.1804 4.49543 27.4047 4.82107 28.1184C5.35899 29.2973 5.33674 29.712 4.66285 31.0608C4.14365 32.0996 4.14365 32.2449 4.66355 32.8183C4.97507 33.1621 5.11069 33.5751 4.96447 33.7359C4.81825 33.897 4.87617 33.9273 5.09303 33.8039C5.30989 33.6805 5.77187 33.8931 6.11906 34.2764C6.89008 35.127 7.32097 35.1429 8.92234 34.3801C10.1384 33.8014 10.1889 33.8071 11.0535 34.6181C11.5409 35.0748 11.9644 35.3022 11.9948 35.1228C12.0255 34.9436 12.1445 35.5738 12.2597 36.5231L12.4691 38.2492L14.2351 38.7115C16.647 39.3427 16.606 39.3522 17.5053 37.9664C18.1915 36.9085 18.496 36.7364 19.6778 36.7364C20.8744 36.7364 21.147 36.8962 21.7817 37.9706C22.5972 39.3501 22.7647 39.3893 25.0004 38.7217C26.5339 38.264 26.9729 37.7083 27.0913 36.0745C27.1107 35.8072 26.2312 34.6823 25.137 33.5743L23.1479 31.5601L21.3402 31.8905C19.2751 32.2675 16.593 31.8038 14.098 30.6373C12.2201 29.7596 9.68382 27.368 10.0331 26.8041C10.1882 26.5531 10.1257 26.4977 9.86678 26.6574C9.24198 27.0432 7.66321 23.3046 7.44741 20.9275C7.34675 19.8195 7.45306 18.0056 7.6837 16.8966C8.15132 14.646 10.1045 11.4561 10.9016 11.6406C11.181 11.7054 11.2894 11.6381 11.1425 11.4914C10.6374 10.9875 13.2666 9.03883 15.5157 8.25034C22.0194 5.96951 28.829 9.17812 31.2476 15.6627C31.6107 16.6367 31.8018 18.263 31.7905 20.2857L31.7728 23.4065L33.732 25.3622C35.6131 27.2403 35.7406 27.3056 36.9358 27.0023C38.0148 26.7283 38.2433 26.4751 38.6523 25.0995C39.3149 22.8719 39.2831 22.7333 37.9032 21.8408C36.856 21.1634 36.6709 20.8443 36.667 19.7099C36.6635 18.5568 36.8305 18.2768 37.8989 17.6473C39.2873 16.8296 39.2972 16.7869 38.6654 14.3442C38.2101 12.5835 38.2073 12.581 36.6246 12.4763C35.238 12.385 34.9604 12.2252 34.4066 11.198C33.8206 10.1115 33.8153 9.94369 34.3352 8.94009C35.138 7.38956 35.0593 7.06408 33.5151 5.55869C32.1334 4.21163 32.1334 4.21163 30.9884 4.78184C29.635 5.45607 29.2115 5.48217 28.0668 4.96133C27.3911 4.65383 27.1598 4.21128 26.9842 2.88961C26.7646 1.23611 26.7331 1.2012 25.0894 0.757235C24.17 0.508981 23.2563 0.182795 23.0585 0.0325735C22.8473 -0.127875 22.3779 0.316091 21.9219 1.10705ZM20.0698 10.9036C18.5624 11.0361 17.5904 11.4829 17.5904 12.0436C17.5904 12.1857 18.7029 13.4259 20.0627 14.7998C22.6947 17.459 22.8201 17.8053 22.0604 20.3196C21.6705 21.6113 21.4935 21.7544 19.5916 22.3183L17.5431 22.9255L16.2423 21.655C12.4666 17.9675 11.9609 17.5898 11.4106 18.0461C10.7745 18.573 10.7243 20.4444 11.2951 22.3465C11.8206 24.0977 14.0779 26.6782 15.8933 27.6029C17.3036 28.3212 20.571 28.6075 22.042 28.1413C22.5976 27.965 23.0896 28.2605 24.152 29.408C24.9138 30.231 25.4934 31.0382 25.4401 31.2018C25.3868 31.3654 25.4768 31.4169 25.64 31.3161C25.8032 31.2152 28.5715 33.782 31.7912 37.0203C37.5115 42.7728 37.6496 42.9466 37.8216 44.6227C38.0183 46.5364 38.8119 47.813 40.5316 48.982C44.8893 51.9434 50.8011 48.0119 49.91 42.7453C49.4674 40.1298 46.6729 37.7943 43.9862 37.7943C43.0895 37.7943 42.4982 37.4752 41.4955 36.4497C40.7722 35.7102 40.3028 34.9708 40.4525 34.8064C40.6019 34.6421 40.5472 34.6086 40.3303 34.732C39.8429 35.0096 38.6791 33.793 39.0461 33.3896C39.1923 33.2284 39.1309 33.2002 38.9101 33.3261C38.4234 33.6036 37.6217 32.734 37.9904 32.3278C38.1342 32.1691 38.0851 32.1338 37.8806 32.2495C37.6761 32.3655 35.3404 30.2882 32.6897 27.6339L27.8704 22.8074L28.2112 21.2205C28.4719 20.0068 28.4203 19.1777 27.9908 17.6942C27.6822 16.6275 27.4067 15.4888 27.3791 15.1634C27.3512 14.8382 27.2339 14.6305 27.1185 14.7018C26.8635 14.859 24.8026 12.7182 24.8993 12.397C24.9371 12.2721 24.7782 12.1547 24.5462 12.1367C23.6501 12.0662 21.4812 11.106 21.7079 10.8799C21.8389 10.7487 21.8803 10.6694 21.7994 10.7033C21.7185 10.7371 20.9401 10.8274 20.0698 10.9036ZM42.8313 41.3122C41.6965 41.7579 41.1133 42.6931 41.1504 44.007C41.1868 45.2892 41.8279 46.3809 42.3538 46.0565C42.5261 45.9504 42.667 46.0315 42.667 46.2367C42.667 46.9691 44.9886 46.6394 45.7843 45.7941C47.7693 43.6843 45.5131 40.2596 42.8313 41.3122Z" fill="white"/>
</svg>
