<svg width="53" height="59" viewBox="0 0 53 59" fill="none" xmlns="http://www.w3.org/2000/svg">
<path fill-rule="evenodd" clip-rule="evenodd" d="M0.0725895 0.618263C0.112598 0.958367 1.19988 12.8952 2.48877 27.1447C3.77777 41.3942 4.86973 53.0895 4.91549 53.1344C5.02845 53.245 26.169 59 26.4625 59C26.759 59 47.9738 53.2443 48.0818 53.1345C48.1258 53.0896 49.2177 41.3942 50.5079 27.1447C51.7982 12.8952 52.8867 0.958367 52.9269 0.618263L53 0H26.5H0L0.0725895 0.618263ZM9.96933 10.6282C9.96873 10.9579 10.4639 16.4477 10.5164 16.6931L10.5732 16.9581H23.2082C30.176 16.9581 35.8432 17.0035 35.8432 17.0594C35.8432 17.1149 35.7087 18.6121 35.5442 20.3862C35.3798 22.1602 35.245 23.6251 35.2448 23.6412C35.2445 23.6574 31.5087 23.6707 26.943 23.6707H18.6415L18.7922 25.3488C18.8751 26.2718 19.007 27.7292 19.0853 28.5873L19.2279 30.1477H26.9531H34.6783L34.6082 30.766C34.5698 31.106 34.3937 33.0005 34.2171 34.976C34.0405 36.9515 33.8894 38.5734 33.8814 38.5801C33.8078 38.6415 26.6222 40.511 26.4598 40.511C26.2698 40.511 19.1731 38.655 19.1241 38.5925C19.1135 38.5789 19.0034 37.4285 18.8794 36.0359L18.6541 33.504L15.3256 33.4727L11.9973 33.4413L12.0668 34.0026C12.105 34.3113 12.3195 36.5967 12.5435 39.0813C12.7675 41.566 12.9673 43.6109 12.9875 43.6256C13.0077 43.6403 16.076 44.4832 19.8059 45.4985L26.5876 47.3447L33.276 45.5174C36.9546 44.5124 40.0032 43.6505 40.0508 43.6021C40.0983 43.5537 40.7876 36.3068 41.5825 27.498C42.3772 18.6892 43.0585 11.2569 43.0962 10.9815L43.1648 10.481H26.5672C13.3692 10.481 9.96957 10.5112 9.96933 10.6282Z" fill="#49B388"/>
</svg>
