<svg width="56" height="56" viewBox="0 0 56 56" fill="none" xmlns="http://www.w3.org/2000/svg">
<path fill-rule="evenodd" clip-rule="evenodd" d="M26.5221 0.707259C25.9484 0.933618 20.7906 6.09042 20.7906 6.43765C20.7906 6.59423 22.0824 8.01832 23.661 9.602L26.5317 12.4815L27.9703 12.5002C30.591 12.5345 32.2537 14.2495 32.2537 16.9191C32.2537 18.2564 32.2619 18.2685 35.1175 21.1328L37.9811 24.0052L39.423 24.0291C41.2934 24.0596 42.4736 24.7667 43.2102 26.2984C43.8936 27.7198 43.7951 29.5883 42.9769 30.7122C41.4826 32.7653 37.9634 32.973 36.286 31.1075C35.4827 30.2141 34.9729 28.3884 35.2791 27.5039C35.5362 26.7613 35.423 26.599 32.8779 24.0662L30.2067 21.4078L30.1338 28.5738L30.061 35.7398L30.8789 36.509C31.329 36.9321 31.8222 37.6095 31.9753 38.015C32.6412 39.7778 31.999 42.1293 30.5591 43.2009C29.4971 43.9915 27.2034 44.1168 25.9763 43.4514C24.8922 42.8633 23.7928 40.978 23.7928 39.7061C23.7928 38.5059 24.753 36.7151 25.6976 36.1536L26.5221 35.6632V28.2942V20.9252L25.6054 20.2214C24.3395 19.2497 23.6891 17.7811 23.8853 16.3392L24.0412 15.195L20.98 12.1227L17.9188 9.05039L9.52919 17.4976C3.23377 23.8368 1.07243 26.1811 0.870462 26.8902C0.285299 28.9441 0.26319 28.9175 13.6264 42.3608C26.8775 55.691 26.9785 55.7759 28.9045 55.2199C29.5165 55.0433 33.3686 51.3416 42.3196 42.3287C55.9154 28.6395 55.9714 28.5708 55.0519 26.7388C54.8322 26.3006 49.0119 20.2697 42.1182 13.3369L29.5841 0.731433L28.258 0.638582C27.5284 0.587486 26.7473 0.618254 26.5221 0.707259ZM0.615272 27.8879C0.628373 28.2079 0.693057 28.273 0.780122 28.0541C0.858999 27.8558 0.849174 27.6187 0.758561 27.5275C0.667948 27.4363 0.603536 27.5984 0.615272 27.8879Z" fill="#49B388"/>
</svg>
