<svg width="52" height="59" viewBox="0 0 52 59" fill="none" xmlns="http://www.w3.org/2000/svg">
<path fill-rule="evenodd" clip-rule="evenodd" d="M0 0.355604C0 0.636319 4.53563 51.7393 4.65792 52.8361C4.68819 53.1077 5.13898 53.2439 15.3282 56.0599L25.9671 59L36.6387 56.0576L47.3105 53.1153L49.648 27.0613C50.9338 12.7316 51.9888 0.780646 51.9928 0.503604L52 0H26H0V0.355604ZM9.61442 10.9904C9.6111 11.3509 11.2935 30.2685 11.3428 30.4236C11.3799 30.5407 13.7504 30.5717 22.6721 30.5717C28.8773 30.5717 33.9543 30.6112 33.9543 30.6594C33.9543 30.9124 33.2147 38.9305 33.1889 38.9575C33.1228 39.0266 26.0842 40.8806 25.8999 40.8775C25.6095 40.8725 18.9006 39.0483 18.7987 38.9465C18.7249 38.8728 18.3054 34.8359 18.2887 34.0377L18.2831 33.7711H14.9517H11.6203L11.6962 34.5709C11.7379 35.0108 11.9441 37.3019 12.1545 39.6622C12.3648 42.0226 12.5743 43.9909 12.6197 44.0364C12.732 44.1485 25.6413 47.7489 25.9406 47.7515C26.2247 47.7541 39.1951 44.1952 39.334 44.0766C39.4108 44.011 41.1941 24.919 41.1959 24.1434C41.1963 23.9473 40.5503 23.936 29.2861 23.936H17.3757L17.0843 20.6774L16.7927 17.4188H29.2841H41.7754L41.8422 16.9152C41.9202 16.3278 42.3836 11.235 42.3836 10.9655C42.3836 10.8021 40.6749 10.7831 26 10.7831C10.4765 10.7831 9.61632 10.794 9.61442 10.9904Z" fill="#49B388"/>
</svg>
