<svg width="50" height="68" viewBox="0 0 50 68" fill="none" xmlns="http://www.w3.org/2000/svg">
<path fill-rule="evenodd" clip-rule="evenodd" d="M31.8633 0.476072C31.9095 0.737911 31.9806 1.74786 32.0213 2.72041C32.0787 4.08388 32.045 4.70672 31.8744 5.44082C31.3792 7.57158 29.8369 9.96704 27.6242 12.0422C27.0425 12.5877 25.0988 14.2082 23.3051 15.643C17.7643 20.0753 16.035 22.2914 16.035 24.9598C16.035 26.4708 16.937 28.5888 18.4391 30.6046C19.7419 32.3529 24.8602 37.5266 25.0746 37.3119C25.1744 37.2121 23.7909 34.9533 22.5391 33.1721C21.2334 31.3148 20.2487 29.4958 19.9053 28.3076C19.5901 27.2169 19.6805 25.193 20.0918 24.1319C20.8667 22.1329 22.0375 20.7354 25.258 17.9659C31.1965 12.8587 33.598 9.15418 33.598 5.10077C33.598 3.33699 32.9852 1.43311 32.0656 0.340051L31.7796 0L31.8633 0.476072ZM37.9102 14.6665C35.2658 15.5775 33.5664 16.3231 31.6838 17.3984C24.4796 21.513 23.1306 26.6759 27.7975 32.2722C29.0364 33.758 29.2751 34.2999 29.2802 35.6374C29.2836 36.561 29.2262 36.8439 28.9006 37.5077C28.6896 37.9378 28.2095 38.6264 27.8337 39.0379C27.458 39.4493 27.2129 39.786 27.2888 39.786C27.637 39.786 29.6651 38.2675 30.6847 37.2434C32.1993 35.722 32.7968 34.5234 32.7998 32.9998C32.8024 31.6883 32.5253 31.0331 31.1712 29.1493C30.6172 28.3786 29.9354 27.2922 29.6562 26.7351C29.1882 25.8015 29.1483 25.6308 29.1483 24.5588C29.1483 23.5601 29.2022 23.2858 29.5288 22.6198C30.4844 20.6721 33.8675 17.88 39.0343 14.7745C40.8199 13.7013 40.7359 13.6932 37.9102 14.6665ZM42.5335 37.0119C41.746 37.223 40.7669 37.7866 40.7669 38.0289C40.7669 38.1158 40.887 38.1335 41.0727 38.0739C43.4699 37.3042 45.6293 38.0209 46.6732 39.9326C47.0167 40.5619 47.0765 40.821 47.0809 41.697C47.0852 42.6228 47.0332 42.8303 46.552 43.8051C45.6701 45.592 43.5604 47.4931 40.5302 49.2315C39.4485 49.8521 39.1741 50.0708 39.3084 50.2052C39.3433 50.2403 40.0986 50.0293 40.9866 49.7364C45.7932 48.1518 48.7814 45.9313 49.7311 43.2382C50.6984 40.4956 48.9706 37.6427 45.9151 36.9377C45.0643 36.7413 43.4068 36.7776 42.5335 37.0119ZM14.6081 37.5675C13.4103 37.7234 11.1777 38.2382 9.93354 38.6455C8.43182 39.1369 6.08297 40.1939 5.67856 40.5602C5.36058 40.8483 5.36846 41.4513 5.69405 41.7462C6.40312 42.3885 9.35206 43.0059 13.2673 43.3318C15.8742 43.5489 24.7444 43.4256 27.6536 43.1321C31.3538 42.7587 36.2134 41.8939 36.6501 41.5311C36.7633 41.4371 37.4759 41.0356 38.2339 40.6388C39.275 40.0939 39.4955 39.9352 39.1362 39.9899C30.471 41.3083 26.7767 41.614 19.5002 41.6141C13.2348 41.6143 11.4353 41.443 10.602 40.7675C9.81327 40.1282 11.3369 39.2799 15.4235 38.0827L17.4618 37.4856L16.2388 37.5C15.5662 37.5079 14.8324 37.5383 14.6081 37.5675ZM13.0468 45.6885C11.9159 46.1924 10.9136 46.9826 10.7925 47.4657C10.1544 50.0104 19.8884 51.5297 29.0804 50.3202C31.4223 50.0122 32.8861 49.7385 34.9902 49.2158C36.0358 48.956 36.9085 48.7264 36.9294 48.7054C36.9502 48.6845 36.584 48.4784 36.1154 48.2474C35.6467 48.0165 35.017 47.6166 34.716 47.3585L34.1686 46.8895L33.1533 47.082C27.6425 48.1266 22.0857 48.3707 16.5785 47.81C14.9269 47.6419 14.3207 47.4793 13.8947 47.0907C13.4794 46.7118 13.5104 46.3363 14.0066 45.7339C14.5206 45.1096 14.3629 45.1021 13.0468 45.6885ZM15.1412 52.9C13.6678 53.4365 12.7736 54.1596 12.7736 54.8145C12.7736 56.0456 15.188 57.2731 18.9566 57.9577C20.8727 58.3059 26.1989 58.3138 28.3319 57.9717C30.277 57.6598 32.3239 57.1521 34.0295 56.5588C35.9169 55.9023 35.9148 55.9038 35.1924 55.6201C34.8577 55.4888 34.003 55.0806 33.293 54.713L32.002 54.0449L29.8278 54.3939C26.5564 54.9192 24.2454 55.0544 21.4256 54.8856C17.4008 54.6446 15.7849 54.3452 15.4853 53.7847C15.3239 53.4829 15.4946 53.0679 15.8657 52.86C16.352 52.5876 15.9365 52.6106 15.1412 52.9ZM7.8816 57.6039C5.17713 57.9426 1.7845 59.2713 0.541521 60.4789C0.113332 60.8949 0 61.1045 0 61.4811C0 62.5742 1.01102 63.0017 4.95997 63.578C18.6734 65.5796 33.5664 65.1161 42.3976 62.413C45.4026 61.4932 47.0178 60.4651 47.0178 59.472C47.0178 59.0748 46.9241 58.9074 46.5112 58.5668C45.9386 58.0942 45.4577 57.9728 45.8417 58.3976C46.1896 58.7824 46.1245 59.4026 45.6929 59.8158C44.1833 61.2613 38.0192 62.2978 28.1292 62.7694C19.3111 63.1898 10.5578 62.6655 6.42269 61.469C4.90494 61.0298 4.41642 60.7507 4.41642 60.3226C4.41642 59.5061 7.78172 58.1863 10.3956 57.9778C10.9235 57.9358 10.9291 57.9302 10.5906 57.7825C10.0736 57.5572 8.88216 57.4786 7.8816 57.6039ZM49.4638 62.1168C47.3839 63.8932 41.3973 65.5076 33.7006 66.3679C27.3114 67.0822 17.916 67.0512 11.6455 66.2952C10.3899 66.1438 9.28915 66.0458 9.19946 66.0775C8.93393 66.1714 10.0268 66.5771 11.4827 66.9251C14.898 67.7415 18.49 68.0132 25.6832 67.9995C29.8281 67.9916 32.0068 67.9273 33.9045 67.7564C43.1674 66.9229 48.4055 65.2165 49.7556 62.5932C50.1517 61.8235 50.0335 61.6303 49.4638 62.1168Z" fill="#49B388"/>
</svg>
