<svg width="52" height="58" viewBox="0 0 52 58" fill="none" xmlns="http://www.w3.org/2000/svg">
<path fill-rule="evenodd" clip-rule="evenodd" d="M25.6073 0.0427946C25.2223 0.0917388 24.6479 0.256129 24.3308 0.407772C24.0137 0.559535 18.8901 3.44303 12.9449 6.81561C5.36434 11.116 1.9426 13.121 1.48937 13.5282C1.0703 13.9048 0.703385 14.3899 0.445159 14.9086L0.0471217 15.7083L0.0140533 28.6252C-0.0224192 42.8776 -0.0464914 42.3777 0.734629 43.5819C1.30628 44.463 1.78224 44.7998 5.08581 46.6614C10.0102 49.4362 10.9169 49.764 13.3566 49.6526C16.0497 49.5297 17.8005 48.5 18.7173 46.4999C19.4351 44.934 19.4385 44.8609 19.4365 31.1206C19.4352 21.277 19.4019 18.5353 19.2813 18.299C19.1316 18.0062 19.0893 17.9975 17.6442 17.9645C16.3609 17.9354 16.0969 17.9631 15.687 18.1699C15.4264 18.3014 15.1791 18.4969 15.1374 18.6043C15.0958 18.7118 15.0617 24.417 15.0617 31.2828V43.7658L14.7221 44.4089C14.0617 45.6593 12.8023 46.1106 11.2233 45.6626C10.5771 45.4794 4.6575 42.2499 4.0895 41.7708C3.88938 41.6021 3.87674 40.8455 3.87674 29.0479C3.87674 16.7854 3.88197 16.4997 4.11272 16.2894C4.55404 15.887 25.9076 3.80837 26.2422 3.77181C26.4975 3.74391 29.0747 5.17592 37.3221 9.92856L48.0693 16.1215L48.1002 28.9757L48.1312 41.8298L37.3532 48.0126C31.4253 51.4132 26.4602 54.2097 26.3198 54.2273C26.1666 54.2464 24.9251 53.584 23.2201 52.5738C21.6558 51.6468 20.2881 50.8893 20.1807 50.8905C20.0734 50.8917 19.6846 51.0593 19.3168 51.2627C18.949 51.4662 18.1557 51.8218 17.554 52.0529C16.2349 52.5594 16.1521 52.6252 16.4645 52.919C16.8339 53.2663 24.3337 57.602 24.9285 57.812C25.6858 58.0796 27.1432 58.0583 27.8917 57.7689C28.2239 57.6404 33.3922 54.713 39.3767 51.2636C51.2156 44.4396 51.1036 44.5137 51.6663 43.1314L51.9597 42.4103L51.9933 29.4366C52.0151 20.9985 51.9836 16.2313 51.903 15.8003C51.7261 14.8535 51.2714 13.9473 50.7117 13.426C50.2526 12.9982 29.5916 1.04729 28.2173 0.414386C27.4306 0.0521744 26.5348 -0.0754171 25.6073 0.0427946ZM29.634 17.6985C25.1695 18.3982 22.6525 20.5294 22.3954 23.8273C22.2496 25.6987 22.8169 27.4129 23.9202 28.4338C25.321 29.7298 27.5546 30.4374 31.5959 30.8653C36.4099 31.375 38.4672 31.9236 39.1849 32.8893C39.5846 33.4272 39.5445 34.7743 39.1068 35.5107C38.3957 36.7074 36.846 37.2577 33.845 37.3795C29.9791 37.5363 27.5356 36.9048 26.4912 35.4785C26.1635 35.0312 25.8083 34.0843 25.587 33.0688C25.4484 32.4333 25.2681 32.3689 23.6241 32.3689C22.2751 32.3689 22.0869 32.3948 21.8699 32.6095C21.5672 32.9089 21.5518 33.5836 21.8186 34.861C22.6702 38.9392 26.4688 41.0274 33.0359 41.0274C38.8911 41.0274 42.6359 39.0523 43.5241 35.4956C43.7798 34.4722 43.7161 32.5871 43.3944 31.6545C42.4626 28.9528 40.1004 27.894 33.0548 27.0196C30.5226 26.7052 28.3138 26.2431 27.5839 25.8749C26.8926 25.5261 26.6928 25.2237 26.6355 24.4402C26.5657 23.4867 26.7652 22.9668 27.4197 22.3971C28.424 21.5226 29.8549 21.2468 32.9223 21.3366C34.633 21.3868 35.2209 21.4498 35.8614 21.6517C37.3229 22.1124 38.173 22.9516 38.6559 24.4103C39.0684 25.6565 39.0281 25.6346 40.9124 25.6346C42.4665 25.6346 42.5395 25.6234 42.7146 25.3591C42.8647 25.1323 42.8749 24.9461 42.7722 24.3069C42.4709 22.433 41.9283 21.3024 40.7775 20.1498C40.0923 19.4638 39.6958 19.1865 38.7688 18.7451C37.0318 17.9183 35.7418 17.6793 32.7509 17.6307C31.4135 17.609 30.0109 17.6394 29.634 17.6985Z" fill="#49B388"/>
</svg>
