<svg width="52" height="54" viewBox="0 0 52 54" fill="none" xmlns="http://www.w3.org/2000/svg">
<path fill-rule="evenodd" clip-rule="evenodd" d="M34.2115 0.211218C33.5196 0.318125 32.5512 0.516511 32.0593 0.651964C31.2579 0.872723 31.0874 0.885287 30.4187 0.773089C30.0082 0.704205 28.8602 0.618789 27.8676 0.583411C25.1267 0.48554 23.2408 0.841532 21.2529 1.83192L20.4573 2.22836L19.76 1.99702C18.6198 1.61876 16.4286 1.11354 15.0767 0.917139C13.3731 0.669598 10.6608 0.67577 9.21867 0.930475C8.16788 1.11597 6.52974 1.64257 5.7583 2.04276C3.48412 3.22249 1.67501 5.40737 0.816725 8.01085C0.27826 9.64411 0.0771142 10.8751 0.00984694 12.947C-0.0769989 15.6243 0.403716 18.7092 1.72653 23.9626C3.56221 31.2527 5.7817 36.3208 8.11068 38.5407C10.0933 40.4303 12.1809 40.7055 14.2146 39.3454L14.8353 38.9301L15.1854 39.2941C16.0702 40.214 17.7278 40.7698 19.8428 40.8557C21.3492 40.917 22.361 40.7739 23.5103 40.3371L24.0202 40.1433L24.0832 41.3138C24.3704 46.6552 24.4682 47.378 25.1828 49.4438C25.9367 51.6232 26.753 52.6837 28.2542 53.4337C29.6669 54.1396 31.6849 54.1876 33.8286 53.5663C36.6875 52.7378 38.1586 51.5474 39.3612 49.0893C40.2804 47.2105 40.7734 44.7951 40.9957 41.0816C41.1518 38.4731 41.051 38.705 42.0026 38.7644C43.0154 38.8277 45.1704 38.544 46.3961 38.1861C48.7026 37.5126 50.9663 35.9309 51.7411 34.4518C52.1084 33.7506 52.0817 32.62 51.6816 31.9344C51.3193 31.3132 50.6916 30.9086 49.8156 30.7313C49.3121 30.6294 49.0286 30.639 48.2941 30.7827C47.1351 31.0094 45.54 31.2169 45.3212 31.1692C45.1867 31.14 45.2572 30.9472 45.6564 30.2506C48.6446 25.0364 50.9817 18.4141 51.6073 13.3879C51.6752 12.8423 51.73 11.7264 51.7293 10.908C51.7266 8.29762 51.306 6.94398 50.0214 5.41255C47.7314 2.68233 44.4797 0.865008 40.7283 0.218822C39.0523 -0.0699385 36.0533 -0.0733552 34.2115 0.211218ZM35.8354 1.43823C34.582 1.53842 32.8556 1.8587 31.671 2.21072C30.9523 2.42432 30.9144 2.42476 30.0304 2.23254C28.66 1.93464 25.1749 1.96296 24.0393 2.28137C22.8453 2.61609 22.0861 2.92226 21.3661 3.35904L20.7296 3.74534L19.727 3.42164C14.1036 1.60664 9.13511 1.64786 5.95113 3.53627C4.91149 4.1528 3.55204 5.5512 2.96217 6.61091C1.90897 8.50273 1.46873 10.5525 1.47102 13.5532C1.47233 15.2568 1.51915 15.855 1.75573 17.1902C2.95845 23.98 5.00195 30.7533 6.94296 34.3836C7.66267 35.7297 8.23657 36.5494 8.99292 37.3109C9.83403 38.1579 10.5158 38.4968 11.4932 38.5538C12.1512 38.5923 12.3149 38.5582 12.9233 38.2565C13.674 37.884 14.0021 37.56 16.1225 35.0968C16.8515 34.25 17.7374 33.2433 18.0913 32.8598L18.7345 32.1626L19.2336 32.3874C19.9019 32.6886 20.928 32.9509 21.4372 32.9509C21.6745 32.9509 21.8518 33.0045 21.8518 33.0764C21.8518 33.1455 21.5847 33.5351 21.2583 33.9422C20.5487 34.8271 20.1888 35.0173 18.4611 35.42C16.439 35.8913 15.7266 36.3535 15.7266 37.1941C15.7266 38.1198 16.7426 38.8091 18.6621 39.1858C20.8353 39.6122 23.0297 39.146 24.6499 37.9134L25.2089 37.488L25.2768 41.0333C25.3469 44.6838 25.5474 47.2011 25.8533 48.2674C26.3392 49.9623 27.5012 51.4986 28.7613 52.1122C30.0972 52.7629 31.47 52.8152 33.5125 52.2931C36.4457 51.5434 37.9981 50.0048 38.6835 47.1685C38.9115 46.2248 39.5155 41.9735 39.8422 39.0126C40.0768 36.8869 40.076 36.8904 40.3469 36.977C41.3468 37.2967 43.9508 37.1882 45.6404 36.7562C47.4828 36.2854 49.6184 34.9583 50.232 33.9032C50.5504 33.3558 50.5753 33.0697 50.3439 32.6188C50.0705 32.0861 49.5337 32.0096 47.9516 32.2777C45.4404 32.7032 43.941 32.6878 43.0576 32.2274L42.751 32.0677L43.3858 31.0489C47.3756 24.6463 50.192 16.3609 50.2135 10.9632C50.2245 8.20339 49.8984 7.33281 48.2118 5.62008C46.9983 4.38778 45.9377 3.62807 44.3666 2.86583C41.9408 1.68897 38.9528 1.18893 35.8354 1.43823ZM36.4537 2.71715C35.7288 2.75749 33.5507 3.07348 33.4138 3.15823C33.3661 3.18777 33.6614 3.37491 34.07 3.57418C35.0783 4.06562 36.6051 5.10461 37.6228 5.99173C39.7024 7.80453 41.8038 10.9244 42.6416 13.443C42.9717 14.4354 42.9865 14.5503 42.9249 15.6473C42.8893 16.2837 42.7751 17.3501 42.6713 18.0169C42.4282 19.5775 42.4317 21.3329 42.6822 23.4722C43.0017 26.201 42.8295 27.8067 42.0356 29.5033C41.6813 30.2601 41.6721 30.3099 41.8475 30.5266C42.0277 30.7491 42.0481 30.7271 42.7323 29.5751C46.0531 23.983 48.4207 17.2283 48.8726 12.0567C49.0252 10.3116 48.898 8.96739 48.4994 8.11302C47.9766 6.99214 46.2588 5.39921 44.4579 4.36508C42.4305 3.20088 39.3095 2.55823 36.4537 2.71715ZM25.0417 3.41955C21.0597 4.13649 18.333 7.0845 17.093 12.0136C16.8213 13.0935 16.433 15.5141 16.5178 15.5994C16.5404 15.6222 17.0181 15.4415 17.5792 15.1977C19.0909 14.541 20.248 14.2937 21.5798 14.343C22.5039 14.3771 22.7713 14.4309 23.2926 14.6879C24.4974 15.2819 25.0849 16.2467 25.4538 18.2373C25.9256 20.7827 26.0144 22.7504 25.7399 24.5746C25.5445 25.8735 25.2777 26.7499 24.5734 28.4065C24.076 29.577 23.2727 31.7628 23.2744 31.9421C23.2747 31.9816 23.5576 32.0178 23.9033 32.0223C24.6531 32.0321 25.2738 32.3209 25.7703 32.8908C26.5292 33.7617 26.492 33.4679 26.5678 39.178C26.6356 44.2825 26.7479 46.227 27.053 47.5818C27.392 49.0869 28.4458 50.5497 29.5408 51.0352C30.6932 51.5461 32.9943 51.2934 34.7191 50.4665C36.2378 49.7383 37.0518 48.5563 37.483 46.4521C37.8612 44.6075 38.7006 37.9883 38.9052 35.2385C38.9956 34.0226 39.0511 33.7572 39.3176 33.2627C39.623 32.6962 40.3003 32.1392 40.8561 31.9977C40.9916 31.9632 41.1022 31.9016 41.1022 31.8606C41.1022 31.8197 40.777 31.3416 40.3795 30.798C39.982 30.2546 39.3988 29.2891 39.0836 28.6526C38.7682 28.016 38.252 27.0335 37.9361 26.4691C34.927 21.0912 34.2842 17.0883 36.1377 15.2704C37.0303 14.395 38.0997 14.0614 40.0358 14.0543C40.8028 14.0515 41.4304 14.0163 41.4304 13.9763C41.4304 13.7607 40.5751 11.9391 40.0933 11.1285C37.7422 7.17278 34.4268 4.62397 30.3937 3.67172C29.4749 3.45471 28.8609 3.38935 27.43 3.35629C26.4374 3.33325 25.3627 3.3618 25.0417 3.41955ZM9.69436 3.58586C5.26074 4.39439 3.01642 7.38957 2.75435 12.8479C2.67483 14.5036 2.83759 15.98 3.42418 18.9274C5.23405 28.0199 8.1623 35.3901 10.58 36.9379C11.5633 37.5675 12.437 37.2969 13.5683 36.0125C13.957 35.5712 14.8107 34.5975 15.4657 33.8486C16.1205 33.0996 16.8728 32.2407 17.1375 31.9399L17.6185 31.3929L17.0658 30.8217C16.2976 30.0282 15.6853 29.0204 15.3252 27.9573C15.0477 27.1376 15.0195 26.9121 15.0196 25.5114C15.0197 24.6628 15.0717 23.1997 15.1351 22.2601C15.2031 21.2524 15.2169 19.8058 15.1687 18.7332C14.9205 13.2077 16.1899 8.60964 18.8288 5.47515C19.166 5.07463 19.4015 4.72173 19.3521 4.69098C19.0751 4.51849 16.076 3.81489 14.8307 3.63028C13.1284 3.37789 10.9385 3.35904 9.69436 3.58586ZM38.7912 15.4213C37.6353 15.635 36.7916 16.2704 36.5061 17.1421C36.4192 17.4072 36.39 17.9301 36.4239 18.6118C36.51 20.3442 37.3739 22.63 39.2398 26.0625C39.767 27.0324 40.3094 28.0863 40.445 28.4045C40.5807 28.7227 40.7282 28.9832 40.7727 28.9832C40.8607 28.9832 41.127 28.3077 41.3156 27.6055C41.5422 26.762 41.5711 25.2309 41.3906 23.6378C41.0317 20.4724 41.0319 20.4605 41.4858 16.9828C41.5838 16.2323 41.6222 15.5761 41.5711 15.5246C41.4357 15.3881 39.3832 15.3119 38.7912 15.4213ZM19.8283 15.8108C18.9744 16.0435 18.1459 16.3827 17.3126 16.8409L16.547 17.2619L16.5309 19.8988C16.522 21.3491 16.4606 23.0173 16.3942 23.6059C16.2261 25.0976 16.2437 26.2446 16.4469 27.0385C17.0102 29.2386 18.8277 31.1028 20.8144 31.5184C21.8962 31.7448 21.909 31.7353 22.3833 30.3608C22.6133 29.694 23.0782 28.5028 23.4164 27.7136C24.3429 25.5521 24.5223 24.6951 24.5239 22.4254C24.5253 20.4349 24.3213 18.7686 23.9136 17.4382C23.6574 16.6025 23.1063 15.9842 22.438 15.7824C21.857 15.6069 20.523 15.6215 19.8283 15.8108ZM38.3678 16.3221C37.9445 16.4497 37.6022 16.7138 37.6022 16.9126C37.6022 17.1224 38.0858 17.518 38.4822 17.6325C38.9599 17.7706 39.6542 17.4511 39.9414 16.9612C40.123 16.6515 40.1263 16.6004 39.9746 16.4475C39.7655 16.2369 38.8796 16.1677 38.3678 16.3221ZM20.7307 16.7582C20.3861 16.9605 20.4931 17.4532 20.9771 17.8939C21.3356 18.2202 21.499 18.2923 21.8795 18.2919C22.4487 18.2915 23.0237 17.9602 23.1189 17.578C23.2036 17.2381 23.0222 16.991 22.5389 16.7874C22.1273 16.614 21.0072 16.596 20.7307 16.7582ZM20.8947 16.8564C20.5881 16.9889 20.5832 17.1869 20.877 17.5633C21.2095 17.9892 21.7017 18.2144 22.1252 18.1343C22.5276 18.0583 23.0944 17.5853 23.0272 17.3817C22.8904 16.9684 21.4544 16.6147 20.8947 16.8564ZM21.0376 17.1802C20.9376 17.3433 21.6252 17.8518 21.9422 17.8491C22.103 17.8478 22.3577 17.7512 22.5081 17.6347L22.7815 17.4228L22.3748 17.2514C21.9294 17.0637 21.135 17.0214 21.0376 17.1802ZM41.3805 33.2366C40.555 33.5404 40.1701 34.1725 40.2459 35.1C40.279 35.5052 40.3173 35.5528 40.7194 35.6884C41.3806 35.9113 43.5654 35.8661 44.8071 35.6038C45.3709 35.4847 46.2033 35.2097 46.6568 34.9927C47.4987 34.5897 48.9258 33.6335 48.8297 33.5366C48.8003 33.5072 48.3171 33.5605 47.7558 33.655C45.3402 34.0618 43.691 33.9876 42.5241 33.4196C42.1933 33.2586 41.898 33.1156 41.8679 33.1021C41.8378 33.0885 41.6185 33.1491 41.3805 33.2366ZM23.4706 33.4749C23.3081 33.5807 22.8112 34.1149 22.3665 34.6623C21.3851 35.8696 20.8066 36.2155 19.0627 36.6379C17.2625 37.0737 17.1142 37.1297 17.2673 37.3158C17.3382 37.4017 17.7465 37.5832 18.1747 37.7188C19.299 38.0752 21.4008 38.0651 22.3265 37.699C23.8021 37.1154 25.2426 35.7613 25.2423 34.9582C25.2421 34.4077 24.9396 33.8357 24.488 33.5317C24.0422 33.2316 23.86 33.2214 23.4706 33.4749Z" fill="#49B388"/>
</svg>
