<svg width="52" height="47" viewBox="0 0 52 47" fill="none" xmlns="http://www.w3.org/2000/svg">
<path fill-rule="evenodd" clip-rule="evenodd" d="M14.716 0.0945494C13.5035 0.300012 12.5679 0.820811 11.7537 1.74361C9.82394 3.93037 9.40056 8.10885 10.5716 13.4092C10.7162 14.0636 10.8186 14.6125 10.7993 14.629C10.7799 14.6456 10.296 14.8138 9.724 15.003C3.40236 17.0931 0 20.0674 0 23.5033C0 25.1086 0.540072 26.2623 1.97444 27.7219C3.72954 29.5075 6.09638 30.8201 9.724 32.0196C10.296 32.2088 10.7799 32.377 10.7993 32.3936C10.8186 32.41 10.7162 32.959 10.5716 33.6134C9.39848 38.9229 9.82862 43.1619 11.7566 45.2926C13.404 47.1132 15.7642 47.4756 18.6491 46.3508C20.6951 45.5532 23.0954 43.9231 25.1918 41.9075L25.9969 41.1336L26.8564 41.9505C30.4593 45.375 34.5121 47.3528 37.0963 46.9478C38.4943 46.7288 39.3821 46.2584 40.2463 45.279C42.1738 43.0948 42.5821 39.1513 41.4435 33.7154C41.2939 33.0015 41.1861 32.4052 41.2038 32.3904C41.2215 32.3756 41.704 32.2088 42.276 32.0196C48.6252 29.9203 52 26.9674 52 23.5113C52 20.0552 48.6252 17.1022 42.276 15.003C41.704 14.8138 41.2215 14.647 41.2038 14.6322C41.1861 14.6174 41.2939 14.021 41.4435 13.3072C42.5825 7.86893 42.1665 3.85516 40.2434 1.72995C39.3586 0.752113 38.4842 0.292238 37.0963 0.0748011C34.5126 -0.330136 30.4592 1.6477 26.858 5.0705L26 5.88605L25.142 5.0705C22.2952 2.36472 19.0476 0.485201 16.536 0.0898223C15.7676 -0.0310812 15.4525 -0.0303457 14.716 0.0945494ZM14.9653 2.49119C12.8487 2.9352 11.9087 5.77912 12.4268 10.1716C12.5732 11.4126 13.0437 13.9266 13.1497 14.0335C13.1766 14.0607 13.8443 13.9593 14.6333 13.8081C16.4022 13.4693 17.8799 13.2481 19.0066 13.1537C19.4789 13.1142 19.9283 13.0295 20.0052 12.9657C20.0822 12.9018 20.5106 12.3532 20.9571 11.7466C21.7308 10.6957 23.0023 9.10696 23.91 8.05696L24.33 7.57103L23.735 7.00296C21.4933 4.86273 19.1483 3.29172 17.3662 2.73615C16.5746 2.4893 15.498 2.37943 14.9653 2.49119ZM35.5434 2.50107C33.525 2.86577 30.9272 4.46052 28.4132 6.87817L27.6652 7.5974L28.658 8.75286C29.204 9.38837 30.1749 10.6068 30.8154 11.4603C31.4965 12.3681 32.0663 13.0291 32.188 13.0527C32.3024 13.0748 33.2384 13.1929 34.268 13.3151C35.2976 13.4371 36.7418 13.6569 37.4773 13.8033C38.2129 13.9497 38.8335 14.0506 38.8565 14.0274C38.9317 13.9515 39.304 12.1139 39.4689 11.0052C40.0975 6.77838 39.4831 3.7538 37.804 2.80884C37.2158 2.47785 36.3353 2.35789 35.5434 2.50107ZM25.22 10.1923C24.5855 10.9373 23.192 12.6792 23.192 12.7273C23.192 12.7368 24.4511 12.7445 25.9901 12.7445C27.8257 12.7445 28.7676 12.7083 28.7286 12.6394C28.5091 12.2517 26.1562 9.41179 26.0119 9.36032C25.9768 9.34782 25.6204 9.72219 25.22 10.1923ZM22.516 15.2095C21.8868 15.2544 21.3651 15.2973 21.3568 15.3047C21.3485 15.312 20.9227 15.968 20.4107 16.7623C19.2984 18.488 18.4591 19.9489 17.4041 21.9951L16.6222 23.5118L17.4488 25.1135C18.4328 27.0199 19.868 29.5133 20.7109 30.7806C21.2462 31.5856 21.3656 31.7047 21.7095 31.7773C22.2146 31.8838 29.7776 31.8826 30.2909 31.776C30.6422 31.7029 30.754 31.586 31.3924 30.623C31.7832 30.0335 32.384 29.0785 32.7277 28.5008C33.4431 27.2978 35.36 23.6427 35.36 23.4816C35.36 23.3324 34.0341 20.7961 33.0966 19.152C31.7529 16.7956 30.7692 15.3408 30.4742 15.2736C30.0337 15.1731 23.7345 15.1225 22.516 15.2095ZM16.068 15.9092C14.3623 16.2089 13.832 16.3417 13.832 16.4696C13.832 16.6205 14.7593 19.2682 15.0687 20.0006L15.3531 20.6742L16.2233 19.0727C17.0056 17.6331 17.6362 16.5395 18.0707 15.8695C18.2193 15.6402 18.2135 15.6334 17.874 15.6432C17.6815 15.6488 16.8688 15.7685 16.068 15.9092ZM33.8 15.6802C33.8 15.706 34.1947 16.3887 34.6771 17.1972C35.1595 18.0056 35.7967 19.1214 36.093 19.6766C36.3894 20.2319 36.6458 20.6718 36.6629 20.6544C36.7856 20.5289 38.168 16.7349 38.168 16.5236C38.168 16.3838 37.2128 16.1608 35.256 15.8437C33.8467 15.6155 33.8 15.6102 33.8 15.6802ZM9.828 17.5335C6.08816 18.814 3.45904 20.5247 2.6415 22.2094C2.24266 23.0315 2.22342 23.9548 2.58939 24.7058C2.90274 25.3487 3.90489 26.4382 4.72711 27.0299C5.51169 27.5945 7.27438 28.537 8.372 28.9789C9.36374 29.3782 11.2264 30.0239 11.3863 30.0239C11.4487 30.0239 11.6565 29.5393 11.8482 28.9472C12.163 27.9744 13.1373 25.4573 13.7328 24.0784L13.9642 23.5426L13.385 22.1769C12.8432 20.8993 11.747 17.9061 11.591 17.2788C11.5527 17.1247 11.4914 16.9989 11.4548 16.999C11.4181 16.9992 10.686 17.2397 9.828 17.5335ZM40.358 17.4451C40.0888 18.3634 39.2676 20.5662 38.6643 21.9882C38.1392 23.226 38.0571 23.5004 38.1455 23.7214C38.2034 23.8658 38.5057 24.5985 38.8174 25.3495C39.1292 26.1006 39.6335 27.4477 39.9382 28.3432C40.2428 29.2387 40.5013 29.9849 40.5126 30.0016C40.5498 30.0563 42.5683 29.3768 43.6065 28.9601C46.5224 27.7899 48.667 26.2337 49.3788 24.7718C49.7562 23.9964 49.7681 23.0553 49.4096 22.3167C49.098 21.6747 48.0963 20.5852 47.2729 19.9927C46.4883 19.4281 44.7256 18.4855 43.628 18.0436C42.6207 17.6381 40.7727 16.9987 40.6081 16.9987C40.5425 16.9987 40.43 17.1995 40.358 17.4451ZM25.584 18.757C23.4461 18.9347 21.6651 20.6129 21.3275 22.7678C20.9238 25.3446 22.6736 27.7764 25.2685 28.2448C27.7389 28.6907 30.2796 26.8154 30.6742 24.2548C31.041 21.8749 29.4979 19.4687 27.248 18.9119C26.6848 18.7725 26.0771 18.716 25.584 18.757ZM15.1413 26.7902C14.7767 27.6955 13.832 30.3685 13.832 30.4943C13.832 30.571 14.161 30.6941 14.638 30.7961C15.787 31.0418 18.111 31.4093 18.1658 31.3541C18.1912 31.3283 18.0534 31.0541 17.8595 30.7444C17.6656 30.4348 17.0462 29.3543 16.483 28.3432C15.9198 27.3322 15.4282 26.4679 15.3906 26.4225C15.3531 26.3773 15.2409 26.5427 15.1413 26.7902ZM35.7472 28.0013C35.2529 28.9115 34.6163 30.0344 34.3328 30.4966C33.8931 31.2131 33.8447 31.3417 34.0042 31.3689C34.2067 31.4034 37.1408 30.9233 37.778 30.7513C37.9926 30.6934 38.168 30.6042 38.168 30.553C38.168 30.4019 37.2406 27.7542 36.9309 27.021L36.646 26.3464L35.7472 28.0013ZM12.9653 33.6632C11.7261 39.2275 12.1906 43.0791 14.241 44.2415C14.7419 44.5254 14.9013 44.5616 15.645 44.5604C17.5612 44.5573 19.7647 43.4484 22.516 41.1025C23.1452 40.5659 23.8086 39.9691 23.9902 39.7761L24.3203 39.4252L23.3359 38.2697C22.7946 37.6342 21.8547 36.4525 21.2473 35.6437C20.6399 34.8348 20.106 34.1305 20.0608 34.0786C20.0155 34.0266 19.2157 33.8974 18.2833 33.7913C16.8662 33.6302 15.017 33.3313 13.4528 33.0104L13.1256 32.9432L12.9653 33.6632ZM37.804 33.1285C36.8552 33.3444 33.9601 33.7907 32.9934 33.8702C32.5211 33.909 32.0716 33.993 31.9946 34.0569C31.9176 34.1208 31.3612 34.8348 30.7583 35.6437C30.1555 36.4525 29.2171 37.6342 28.6732 38.2697L27.6842 39.4252L28.0121 39.7761C28.1924 39.9691 28.8548 40.5659 29.484 41.1025C32.2353 43.4484 34.4388 44.5573 36.355 44.5604C37.0987 44.5616 37.2581 44.5254 37.759 44.2415C39.7849 43.0929 40.2652 39.1645 39.0444 33.7266C38.8509 32.8643 38.8876 32.8821 37.804 33.1285ZM23.2714 34.3832C23.5289 34.838 25.8763 37.6395 26 37.6395C26.1237 37.6395 28.4711 34.838 28.7286 34.3832C28.7676 34.3142 27.829 34.2781 26 34.2781C24.171 34.2781 23.2324 34.3142 23.2714 34.3832Z" fill="#49B388"/>
</svg>
