<svg width="52" height="52" viewBox="0 0 52 52" fill="none" xmlns="http://www.w3.org/2000/svg">
<path fill-rule="evenodd" clip-rule="evenodd" d="M23.671 0.0376479C23.5037 0.0609238 23.0018 0.128109 22.5556 0.186959C20.5127 0.456511 17.5374 1.30399 15.5586 2.17994C12.1918 3.6703 8.78195 6.18612 6.48998 8.87057C3.13984 12.7945 1.16345 16.9318 0.293284 21.8428C0.0111737 23.4345 -0.0904347 26.8306 0.0907771 28.6072C0.724968 34.8255 3.38808 40.4195 7.75147 44.6991C8.52773 45.4604 8.59232 45.5052 8.29581 45.0764C7.8551 44.4389 7.76242 43.4397 8.0855 42.8099C8.76988 41.4757 10.3834 41.152 11.4654 42.1317C11.9436 42.5648 12.1114 42.8646 12.2107 43.4635C12.3548 44.332 11.8084 45.3727 11.0087 45.7531C10.5207 45.9852 9.56734 45.9688 9.06467 45.7195L8.663 45.5203L9.17003 45.9831C9.44889 46.2375 10.1493 46.7837 10.7266 47.1968C13.9651 49.5144 17.9566 51.142 21.9471 51.7722C23.3407 51.9921 26.8332 52.0742 28.3451 51.9225C36.855 51.0685 44.4981 45.9688 48.6995 38.3415C50.3824 35.2861 51.5008 31.6007 51.7811 28.1861C51.8446 27.4127 51.8667 27.3317 51.9208 27.6742C51.9562 27.8978 51.9914 27.1888 51.999 26.0987C52.0364 20.7504 51.0201 14.9349 48.7041 7.24431C48.175 5.48754 47.3495 2.9148 47.2734 2.78592C47.2449 2.73764 46.9387 3.26364 46.5928 3.9548C45.9806 5.17825 45.0177 6.81721 44.6276 7.30011L44.4343 7.53947L43.5341 6.72533C41.6371 5.00983 39.8618 3.80416 37.5636 2.67066C35.0856 1.44853 32.5737 0.64658 29.9075 0.226396C28.8943 0.0667173 24.4327 -0.0682621 23.671 0.0376479ZM46.5018 6.39998C44.0066 10.8561 38.278 15.0651 32.5503 16.6506C30.6914 17.1651 28.8752 17.4025 25.1921 17.6123C23.6862 17.6981 21.8911 17.8395 21.2027 17.9265C17.1399 18.4403 14.0101 19.8795 11.4989 22.3888C9.46634 24.4197 8.29246 26.6362 7.7537 29.4604C7.56589 30.4443 7.53953 32.5583 7.70198 33.5969C8.03723 35.7398 8.91347 37.5915 10.1669 38.8064C10.8378 39.4566 11.8895 40.1252 12.2414 40.1252C12.5412 40.1252 16.9083 39.1569 19.412 38.5353C21.7167 37.9631 24.6575 37.1057 26.2179 36.5509C28.7106 35.6646 32.3437 33.6618 34.7077 31.8706C39.2789 28.4073 42.8543 23.9764 44.4505 19.797C44.8115 18.8517 44.7704 19.3492 44.3658 20.8215C43.4883 24.0148 41.7416 27.3326 39.34 30.3677C38.2874 31.6979 35.4474 34.549 34.1665 35.5611C31.7528 37.4684 29.6502 38.7165 27.0832 39.7659C26.039 40.1928 23.9994 40.8676 19.8683 42.153C17.7572 42.8099 15.5751 43.5806 15.6406 43.6463C15.6625 43.6682 15.9952 43.6417 16.3801 43.5872C17.8966 43.3725 19.4796 43.3522 24.5941 43.4816C28.7368 43.5863 30.4264 43.5902 32.2187 43.499C37.5377 43.2285 41.0592 42.2724 44.001 40.2999C45.0939 39.5672 46.7882 37.8341 47.5501 36.6694C49.0237 34.4174 49.9519 31.8921 50.4458 28.7922C50.6666 27.406 50.7522 23.5769 50.6025 21.779C50.2227 17.2161 49.1648 12.3243 47.3196 6.59807L46.9804 5.54528L46.5018 6.39998ZM0.0360181 25.9463C0.0361195 27.1761 0.0507219 27.6653 0.0685693 27.0333C0.0864167 26.4013 0.0863153 25.3951 0.0684679 24.7972C0.0505191 24.1994 0.0359167 24.7164 0.0360181 25.9463Z" fill="#49B388"/>
</svg>
