<svg width="55" height="55" viewBox="0 0 55 55" fill="none" xmlns="http://www.w3.org/2000/svg">
<path fill-rule="evenodd" clip-rule="evenodd" d="M45.2504 1.84099C45.0853 2.72899 44.9499 4.16188 44.9492 5.02816C44.9476 7.02515 45.2053 7.55257 46.8488 8.91621C47.501 9.45748 48.0348 9.97042 48.0348 10.0562C48.0348 10.3834 46.081 18.8149 45.5612 20.7311C44.7635 23.6715 44.1631 25.276 43.133 27.2204C42.6285 28.1726 42.0547 29.3957 41.8577 29.9385C41.392 31.2222 40.6261 32.065 38.8202 33.2804C37.036 34.4813 35.0913 35.9737 33.3862 37.4507C32.6865 38.0566 31.3519 39.1456 30.4203 39.8704C28.9826 40.9891 28.6635 41.3209 28.3093 42.0652C27.692 43.3628 27.6494 43.9805 28.1382 44.5443C28.5363 45.0034 28.5465 45.0056 30.2528 44.9927C31.5104 44.9833 32.3106 44.8855 33.2559 44.626L34.5445 44.2722L37.2223 41.5698C40.7005 38.0596 42.336 36.1407 42.336 35.57C42.336 35.5223 42.1223 35.4834 41.8611 35.4834C41.5999 35.4834 41.3861 35.425 41.3861 35.3537C41.3861 35.2823 41.7849 34.7689 42.2722 34.2126C44.9468 31.1596 45.839 28.7962 49.2797 15.6521C50.2098 12.0987 50.5277 11.1589 50.9816 10.6228L51.3873 10.1434H53.1937H55V5.18556V0.227722H50.2752H45.5504L45.2504 1.84099ZM25.4376 17.8512C25.0678 18.0182 24.2516 18.485 23.6238 18.8889C21.1734 20.4648 12.6486 27.1412 12.054 27.95C11.6745 28.4661 11.5243 29.6502 11.7785 30.1224C12.0717 30.6671 12.8908 30.9195 14.3511 30.9153C16.2149 30.9098 16.8955 30.7119 17.9341 29.8741C19.741 28.4162 23.4235 24.9801 24.9059 23.3687C27.9338 20.0775 28.6574 18.638 27.6717 17.8671C27.1469 17.4566 26.325 17.4508 25.4376 17.8512ZM37.2703 20.9151C35.9914 21.387 33.6981 22.9455 30.1467 25.7563C28.9714 26.6867 27.5837 27.6751 27.0632 27.9529C26.5425 28.2305 25.5001 28.9419 24.7464 29.5337C23.2888 30.6786 22.9171 31.2472 22.5263 32.9312C22.2944 33.9298 22.5494 34.503 23.4116 34.9215C23.9877 35.2011 24.1641 35.211 25.6279 35.0462C26.5025 34.9477 27.7246 34.6946 28.3437 34.4838C29.2792 34.1653 29.5989 33.9585 30.2387 33.2574C30.662 32.7938 31.8095 31.6352 32.7886 30.683C37.1582 26.4334 39.6448 23.2464 39.6448 21.8953C39.6448 21.6877 39.4971 21.3314 39.3167 21.1034C38.9429 20.6309 38.2209 20.5644 37.2703 20.9151ZM24.0384 27.3384C19.4516 31.0316 19.3821 31.0612 14.6164 31.3377C13.3198 31.413 12.9916 31.3802 12.3888 31.115C11.5276 30.7363 11.0638 29.9329 11.2221 29.0938C11.2777 28.7992 11.2666 28.5612 11.1973 28.565C11.1281 28.5686 8.6494 30.5712 5.68917 33.0152L0.306938 37.4587L0.265143 42.6093C0.242189 45.4422 0.258496 47.76 0.301395 47.76C0.344137 47.76 6.02619 43.3314 12.928 37.9187C25.4214 28.1211 25.4776 28.0744 25.6686 27.3486C26.0159 26.0283 25.6682 26.0261 24.0384 27.3384ZM36.083 29.8414C35.9089 29.936 35.1966 30.5624 34.5 31.2335C32.0932 33.5529 29.9734 34.6982 26.9016 35.3393C24.516 35.8372 23.285 35.7005 22.4618 34.8463C22.0537 34.4228 21.9994 34.2558 22.0131 33.468C22.0214 32.9751 22.1418 32.3062 22.2803 31.9815C22.4188 31.6569 22.4954 31.3912 22.4504 31.3912C22.4056 31.3912 17.3872 35.2955 11.2983 40.0673L0.227783 48.7433V51.8717V55H5.17801H10.1283L20.4095 46.9684C29.425 39.9253 31.0335 38.6031 33.4768 36.2265C35.3873 34.3678 36.3715 33.2902 36.6083 32.7974C37.1369 31.6977 37.0568 29.6333 36.4867 29.6647C36.4389 29.6673 36.2572 29.7468 36.083 29.8414ZM40.2734 41.0771C37.6648 43.6985 34.2417 45.2943 30.7701 45.5074C28.9968 45.6165 28.285 45.4402 27.6983 44.747C27.2392 44.2047 27.1966 43.6764 27.5348 42.7234C27.6654 42.3555 27.7722 42.0306 27.7722 42.0016C27.7722 41.9725 24.3706 44.6151 20.2133 47.8739C16.056 51.1327 12.3096 54.0692 11.8882 54.3994L11.1221 55L22.3362 54.9992L33.5502 54.9984L35.1575 53.1498C38.6586 49.1228 40.2103 46.8134 41.1049 44.298C41.4392 43.358 41.7031 40.0478 41.4436 40.0478C41.3633 40.0478 40.8368 40.511 40.2734 41.0771Z" fill="#49B388"/>
</svg>
