<svg width="52" height="52" viewBox="0 0 52 52" fill="none" xmlns="http://www.w3.org/2000/svg">
<path fill-rule="evenodd" clip-rule="evenodd" d="M0 26V52H26H52V26V0H26H0V26ZM38.428 23.7614C35.7813 24.0036 33.5717 25.7054 32.7626 28.1248C32.4771 28.9788 32.4454 31.1729 32.7047 32.1387C33.0716 33.5057 33.9756 34.7964 35.2351 35.7518C35.8727 36.2355 38.2227 37.5032 38.792 37.6705C39.4076 37.8516 41.7929 39.0892 42.1898 39.4335C42.958 40.0998 43.1551 41.1618 42.6919 42.1383C42.0506 43.4903 39.3185 43.9258 37.4286 42.9773C36.8397 42.6818 35.9121 41.845 35.403 41.15C35.1938 40.8645 34.9698 40.6449 34.9051 40.6621C34.5461 40.7576 31.096 42.7902 31.096 42.9064C31.096 43.1507 32.0667 44.5327 32.6038 45.0529C33.7421 46.1554 35.3883 47.0997 36.812 47.467C38.3159 47.855 41.2202 47.8582 42.6627 47.4736C44.7171 46.9258 46.348 45.7355 47.1425 44.2042C47.6521 43.2219 47.8658 42.263 47.867 40.9539C47.8692 38.6147 46.9621 36.7441 45.1897 35.4321C44.4673 34.8973 43.0079 34.0894 41.704 33.5024C38.4072 32.018 37.8917 31.6964 37.53 30.8987C37.1608 30.0843 37.3846 28.962 38.0153 28.4649C38.4445 28.1266 39.3562 27.8917 39.9614 27.9636C40.2423 27.9968 40.7186 28.1372 41.0199 28.2754C41.5218 28.5057 41.7534 28.7253 42.522 29.6994L42.7275 29.9599L43.0738 29.7619C43.8678 29.3078 46.384 27.5814 46.384 27.4906C46.384 27.3125 45.7406 26.4268 45.1995 25.8603C44.3352 24.955 43.3941 24.3716 42.2194 24.0127C41.8335 23.8949 39.4988 23.6206 39.312 23.6712C39.2834 23.679 38.8856 23.7195 38.428 23.7614ZM11.4015 24.2024C11.3671 24.3314 11.3382 25.2927 11.3375 26.3387L11.336 28.2405H14.716H18.096V37.8798V47.519H20.54H22.984V37.8798V28.2405H26.364H29.744V26.1042V23.9679H20.6042H11.4642L11.4015 24.2024Z" fill="#49B388"/>
</svg>
