<svg width="52" height="46" viewBox="0 0 52 46" fill="none" xmlns="http://www.w3.org/2000/svg">
<path d="M14.963 2.42063C14.616 2.36193 11.5029 1.79655 8.04509 1.16412C4.5873 0.531786 1.5241 0.0100786 1.23799 0.00468493C0.773719 -0.0038815 0.679202 0.0356727 0.358891 0.372725C0.0637264 0.683443 0 0.832774 0 1.21477C0 1.6211 0.261816 2.14545 2.09492 5.41116L5.64435 11.7342C18.4793 34.5993 24.5864 45.362 24.893 45.6563C25.1788 45.9307 25.3393 46 25.689 46C25.9299 46 26.2639 45.9197 26.4312 45.8216C26.6575 45.689 27.4299 44.4361 29.4468 40.9302C32.3117 35.9505 40.1626 22.2711 40.6189 21.464C40.8689 21.022 40.9874 20.8147 41.5574 19.8248L41.9837 19.0845C42.5577 18.0875 42.6723 17.887 42.9217 17.4452C43.0694 17.1835 44.8413 14.0978 46.8593 10.5881C51.0314 3.32962 52 1.67028 52 1.2317C52 0.65161 51.637 0.157295 51.1034 0.0110311C50.8254 -0.065115 48.9486 0.235133 41.973 1.47156L33.0925 2.60962L33.6148 9.47324C33.6148 9.47324 34.097 17.396 33.832 17.5954C33.7148 17.6836 33.523 17.7567 33.4058 17.7578C33.2886 17.759 32.1857 17.5189 30.9549 17.2245C29.7242 16.9299 28.4943 16.6632 28.2217 16.6316C27.7728 16.5797 27.7089 16.6005 27.5416 16.854C27.362 17.126 27.3786 17.2418 28.1403 21.0364C28.9097 24.8692 28.9201 24.9431 28.7241 25.1581C28.6142 25.2785 28.4082 25.3771 28.2663 25.3771C28.1244 25.3771 27.2656 25.1526 26.3578 24.8781C24.813 24.411 24.689 24.3892 24.4213 24.5377C24.2283 24.6447 24.1253 24.7984 24.1044 25.0102C24.0873 25.1829 24.3415 26.628 24.6692 28.2215C24.9969 29.815 25.2413 31.1802 25.2122 31.2553C25.1833 31.3302 25.205 31.4067 25.2606 31.4251C25.3161 31.4435 25.3787 31.625 25.3994 31.8286C25.4201 32.0321 25.4641 32.2699 25.4972 32.3571C25.584 32.5865 25.7857 33.5165 25.835 33.9141C25.8582 34.1015 25.9015 34.2939 25.9312 34.3416C26.0534 34.5378 26.0847 35.3184 25.9705 35.3184C25.9057 35.3184 25.9264 35.3778 26.0163 35.4506C26.1064 35.5233 26.2445 35.8621 26.3232 36.2035C26.4465 36.7379 26.4446 36.8629 26.3096 37.1024C26.1165 37.445 25.7893 37.5055 25.4928 37.2535C25.3698 37.149 24.6732 35.8974 23.9447 34.4723C23.2163 33.0472 21.8043 30.2869 20.8069 28.3383C13.6785 14.4101 10.1361 7.31841 10.1952 7.09409C10.2297 6.96295 10.3688 6.78369 10.5043 6.6956C10.7303 6.54859 10.9794 6.57958 13.5247 7.07125C16.4954 7.6452 16.7682 7.65038 16.8985 7.13523C16.9531 6.91938 15.8304 2.78169 15.6706 2.60962C15.6285 2.56436 15.3101 2.47933 14.963 2.42063Z" fill="#49B388"/>
</svg>
